Coordinates
version=1
nRows=18
nColumns=38
inDegrees=yes

Units are S.I. units (second, meters, Newtons, ...)
If the header above contains a line with 'inDegrees', this indicates whether rotational values are in degrees (yes) or radians (no).

endheader
time	pelvis_tilt	pelvis_list	pelvis_rotation	pelvis_tx	pelvis_ty	pelvis_tz	hip_flexion_r	hip_adduction_r	hip_rotation_r	knee_angle_r	ankle_angle_r	subtalar_angle_r	mtp_angle_r	hip_flexion_l	hip_adduction_l	hip_rotation_l	knee_angle_l	ankle_angle_l	subtalar_angle_l	mtp_angle_l	lumbar_extension	lumbar_bending	lumbar_rotation	arm_flex_r	arm_add_r	arm_rot_r	elbow_flex_r	pro_sup_r	wrist_flex_r	wrist_dev_r	arm_flex_l	arm_add_l	arm_rot_l	elbow_flex_l	pro_sup_l	wrist_flex_l	wrist_dev_l
      1.09200000	      1.17854054	     -1.45586348	      5.15915012	     -1.52683286	      1.02967986	      0.23669010	    -14.07410797	      5.01802543	     -2.42775901	    -22.35716458	      4.86181890	     10.28386483	     21.51031567	     40.37680340	      2.45031439	      1.74303634	    -89.41243348	      0.31945646	      0.34590575	     11.25796933	    -13.56408057	      2.53179984	      8.65685872	    -13.22015270	    -33.83010266	    -16.46563434	    116.09039462	    165.02896897	      0.00000000	      0.00000000	    -41.99264949	    -23.46880621	      5.70407741	     66.91814159	    127.60286215	      0.00000000	      0.00000000
      1.09600000	      0.83375343	     -0.66265015	      5.28275257	     -1.51151774	      1.03262525	      0.23595148	    -14.76642405	      4.15832068	     -2.84815662	    -21.58474979	      2.48047774	      9.89977906	     22.18356398	     40.67629328	      3.35360862	      1.15739612	    -87.26166085	      0.03469510	     -0.97500999	     10.99499641	    -13.10184687	      1.65604009	      8.55937659	    -13.09634799	    -33.40732179	    -16.96981416	    117.47140137	    165.10987216	      0.00000000	      0.00000000	    -42.77935193	    -23.46573033	      5.23195950	     67.04744973	    127.69942060	      0.00000000	      0.00000000
      1.10000000	      0.43192740	      0.05502543	      5.38102050	     -1.49602728	      1.03529488	      0.23507265	    -15.37316884	      3.31458350	     -3.44584486	    -20.85830689	     -0.03964574	      9.96984870	     22.97556611	     40.98780899	      4.15782429	      0.60933348	    -85.08372901	      0.03056020	     -1.79326364	     10.73983261	    -12.48365971	      0.89629302	      8.47209407	    -12.97039523	    -33.22406711	    -17.24026082	    118.78273125	    165.18837014	      0.00000000	      0.00000000	    -43.65759913	    -23.54548080	      5.01476243	     67.21800615	    127.80339754	      0.00000000	      0.00000000
      1.10400000	      0.42000749	      1.09019177	      5.48033174	     -1.48039741	      1.03848819	      0.23401379	    -16.48528799	      2.18606038	     -4.08928498	    -19.99227383	     -2.47838696	     10.33815740	     25.60356172	     40.74267108	      5.22073351	     -0.09911978	    -82.71432882	     -0.18148155	     -2.80599340	      9.93976669	    -12.33854183	     -0.18813555	      8.22113341	    -12.76066332	    -33.20464505	    -17.09431578	    120.08516434	    165.66054811	      0.00000000	      0.00000000	    -44.70764272	    -23.53936783	      4.41522302	     67.78027243	    128.02047154	      0.00000000	      0.00000000
      1.10800000	     -0.18422580	      1.32287979	      5.44352106	     -1.46494857	      1.04066515	      0.23372523	    -16.74778129	      1.85093780	     -4.30073100	    -19.32542057	     -4.94623589	     10.32802033	     25.64843256	     41.26444397	      5.42144114	     -0.45885864	    -80.55561315	      0.02312381	     -3.14731925	      9.83819651	    -11.46439885	     -0.51956872	      8.42505092	    -12.87658937	    -33.00586555	    -17.35065390	    121.39052625	    165.72391512	      0.00000000	      0.00000000	    -45.53182943	    -23.52650529	      4.10384940	     67.94798914	    128.04599318	      0.00000000	      0.00000000
      1.11200000	     -0.73200744	      1.90927541	      5.55873468	     -1.44956957	      1.04297560	      0.23293289	    -17.06212670	      1.20155594	     -4.76697110	    -18.75652012	     -7.25073709	      9.78542153	     25.90270576	     41.63277032	      6.09271756	     -0.89575231	    -78.19240457	     -0.26957260	     -3.92013799	      9.57161886	    -10.72675912	     -1.16679904	      8.32343797	    -12.79186663	    -32.66105428	    -17.61220249	    122.66273057	    165.88092762	      0.00000000	      0.00000000	    -46.34213032	    -23.56612953	      3.82357157	     68.06517206	    128.11174285	      0.00000000	      0.00000000
      1.11600000	     -1.19584483	      2.20707805	      5.56544351	     -1.43422823	      1.04520387	      0.23247234	    -17.41876122	      0.82959968	     -4.95290535	    -18.16911943	     -9.41490639	      9.81028557	     25.88209041	     41.88322363	      6.32843851	     -1.32013834	    -75.82178912	     -0.42729990	     -4.16230146	      9.44820194	    -10.04697453	     -1.52464704	      8.43110943	    -12.82989061	    -32.60020625	    -17.71009693	    123.83855197	    165.96553760	      0.00000000	      0.00000000	    -47.17607908	    -23.60390379	      3.58389697	     68.33672903	    128.15523804	      0.00000000	      0.00000000
      1.12000000	     -1.57361688	      2.91694470	      5.69182646	     -1.41858334	      1.04751473	      0.23167857	    -17.82023692	      0.06377141	     -5.62151072	    -17.80059145	    -11.57132562	      9.36242730	     25.86921059	     41.89812579	      7.09740300	     -1.77825294	    -73.26185229	     -0.64165129	     -4.64279657	      9.18054116	     -9.47348160	     -2.31856537	      8.32258167	    -12.70143238	    -32.26117898	    -18.20633104	    124.82566002	    166.05107713	      0.00000000	      0.00000000	    -48.03758741	    -23.54429533	      3.04249625	     68.57645472	    128.18152154	      0.00000000	      0.00000000
      1.12400000	     -1.94412396	      3.15457962	      5.68191367	     -1.40319287	      1.04951530	      0.23116929	    -18.16752165	     -0.24402915	     -5.82600191	    -17.36086095	    -13.62275692	      9.45160498	     25.73434259	     41.97096233	      7.29990472	     -2.08404397	    -70.81025461	     -0.77911494	     -4.66486526	      9.06666134	     -8.85566074	     -2.61111612	      8.41494755	    -12.66206832	    -32.32294087	    -18.25352698	    125.84451697	    166.08713059	      0.00000000	      0.00000000	    -48.89513059	    -23.53736464	      2.74598899	     68.92758693	    128.21127164	      0.00000000	      0.00000000
      1.12800000	     -2.33807525	      3.54492249	      5.72033355	     -1.38782953	      1.05148287	      0.23043996	    -18.46050869	     -0.70026509	     -6.12455649	    -17.01132333	    -15.69260982	      9.19946936	     25.51222865	     41.95372630	      7.71454308	     -2.38443010	    -68.18922498	     -0.91321620	     -4.72009859	      8.95543646	     -8.24866216	     -3.04995779	      8.44258203	    -12.63725495	    -32.24982127	    -18.43800092	    126.83204796	    166.08403199	      0.00000000	      0.00000000	    -49.71053529	    -23.40878114	      2.33275674	     69.18352758	    128.21532106	      0.00000000	      0.00000000
      1.13200000	     -2.62106132	      3.94942119	      5.81872674	     -1.37246207	      1.05346788	      0.22964877	    -18.87429680	     -1.10942927	     -6.40263289	    -16.66070850	    -17.57190501	      8.74228438	     25.20666158	     41.78641588	      8.16387022	     -2.63800031	    -65.49970333	     -1.17083862	     -4.65633906	      8.81876923	     -7.79703323	     -3.48147583	      8.35138911	    -12.58762413	    -32.12566905	    -18.47154435	    127.87449617	    166.11859428	      0.00000000	      0.00000000	    -50.46652024	    -23.32681609	      1.97738456	     69.43151130	    128.20332166	      0.00000000	      0.00000000
      1.13600000	     -2.84721350	      4.33659473	      5.91665452	     -1.35698532	      1.05538876	      0.22894506	    -19.31613388	     -1.50192656	     -6.76393053	    -16.38296764	    -19.35776614	      8.41737811	     24.82479502	     41.48139922	      8.62737426	     -2.77751202	    -62.74099463	     -1.49573780	     -4.49090511	      8.67614834	     -7.38328128	     -3.90909195	      8.31194124	    -12.61335953	    -31.96885014	    -18.62857004	    128.81278410	    166.16412013	      0.00000000	      0.00000000	    -51.22241190	    -23.27021291	      1.50834946	     69.79917135	    128.19259666	      0.00000000	      0.00000000
      1.14000000	     -3.03419119	      4.64693166	      6.03535203	     -1.34147843	      1.05714377	      0.22808163	    -19.72084230	     -1.80820154	     -7.03174108	    -16.23934026	    -20.87177910	      8.09638373	     24.38941081	     41.11180859	      9.02530000	     -2.89459605	    -59.94781321	     -1.93111070	     -4.16908365	      8.55946296	     -7.00264259	     -4.22638436	      8.15663151	    -12.67169818	    -31.99344780	    -18.35274427	    129.84994254	    166.22241354	      0.00000000	      0.00000000	    -51.96242180	    -23.09267710	      1.17635845	     70.00789743	    128.17253072	      0.00000000	      0.00000000
      1.14400000	     -2.90500112	      5.30589612	      6.27530477	     -1.32585862	      1.05929258	      0.22714567	    -20.55950271	     -2.35485800	     -7.58847309	    -16.04400052	    -22.28602192	      7.47594572	     23.24841459	     40.21741719	      9.86716724	     -2.93382926	    -56.89184750	     -2.30829691	     -4.17390329	      8.39088412	     -7.05734058	     -4.89889982	      7.85711760	    -12.52782120	    -31.67465542	    -18.71341769	    130.52921041	    166.30886016	      0.00000000	      0.00000000	    -52.63223689	    -23.12966460	      0.96934282	     70.18925813	    128.06358113	      0.00000000	      0.00000000
      1.14800000	     -3.07831207	      5.28432840	      6.29139231	     -1.31069764	      1.06070179	      0.22648999	    -20.79682005	     -2.37192686	     -7.67371177	    -16.10053324	    -23.49104422	      7.52622815	     22.77699882	     39.83475846	      9.90952160	     -2.84380518	    -54.09204109	     -3.00295366	     -3.50307648	      8.32311978	     -6.70061768	     -4.85305571	      7.88659955	    -12.57018706	    -31.79004632	    -18.77701697	    131.34962069	    166.34325428	      0.00000000	      0.00000000	    -53.22037605	    -22.93505197	      0.67690284	     70.46469935	    128.02834841	      0.00000000	      0.00000000
      1.15200000	     -2.68017831	      5.80826428	      6.57529999	     -1.29488813	      1.06272728	      0.22559103	    -21.91526382	     -2.69814390	     -8.25909861	    -15.93163024	    -24.52443343	      6.91710306	     19.97042122	     38.60844375	     10.62594392	     -2.68847355	    -51.00897763	     -3.59865095	     -3.22980790	      8.33433663	     -7.00289462	     -5.37171842	      7.42419675	    -12.40671278	    -31.80445981	    -18.55658899	    131.90277331	    166.28831047	      0.00000000	      0.00000000	    -53.94929211	    -22.75336021	      0.01442265	     70.95082788	    127.70565126	      0.00000000	      0.00000000
      1.15600000	     -2.97729591	      5.66418977	      6.58957811	     -1.27967434	      1.06358597	      0.22500561	    -21.94059219	     -2.57158775	     -8.07338857	    -16.12773702	    -25.60993377	      6.70438543	     19.55837493	     38.29297315	     10.56265190	     -2.53396262	    -48.14280556	     -4.26198552	     -2.46618004	      8.32989998	     -6.47954777	     -5.19826228	      7.50971415	    -12.57981625	    -31.75121732	    -18.73982045	    132.62709636	    166.28349401	      0.00000000	      0.00000000	    -54.42041248	    -22.67037648	     -0.02215989	     71.02237914	    127.65610026	      0.00000000	      0.00000000
      1.16000000	     -3.11273608	      5.48547107	      6.67254166	     -1.26425748	      1.06446827	      0.22464256	    -22.11797969	     -2.32557555	     -8.01828938	    -16.39333791	    -26.53038237	      5.99175059	     19.07932914	     37.74606201	     10.47894334	     -2.24664350	    -45.27711950	     -4.85193500	     -1.52214836	      8.38069616	     -6.13876122	     -5.03146603	      7.51913419	    -12.82786138	    -31.63680344	    -18.90035065	    133.28191268	    166.27406560	      0.00000000	      0.00000000	    -54.93127622	    -22.60444017	     -0.28827451	     71.21487332	    127.56509439	      0.00000000	      0.00000000
